<svg version="1.1" viewBox="0 0 2048 869" width="1315" height="558" xmlns="http://www.w3.org/2000/svg">

<path transform="translate(414,176)" d="m0 0 5 2 19 13 7 5 11-1 23-5h6l11 17 9 14 37 7 2 5 6 33 30 20 2 3-7 33 1 5 15 22 4 6-1 4-19 28 2 13 5 25-11 8-16 10-5 4-7 36-3 2-33 6-5 5-12 19-6 8-25-5-13-2-25 17-4 3-5-1-16-11-12-8-26 5-12 2-7-10-14-21-12-3-25-5-2-6-6-31v-2l-5-2-23-15-4-4 7-33-1-6-14-20-5-8 2-5 13-19 5-7-1-10-5-23v-6l11-8 19-12 2-6 6-32 12-3 26-5 15-23 5-8 11 1 23 5h6l16-11z" fill="#CBF0FC" data-index="1"></path>
<path transform="translate(414,176)" d="m0 0 5 2 19 13 7 5 11-1 23-5h6l11 17 9 14 37 7 2 5 6 33 30 20 2 3-7 33 1 5 15 22 4 6-1 4-19 28 2 13 5 25-11 8-16 10-5 4-7 36-3 2-33 6-5 5-12 19-6 8-25-5-13-2-25 17-4 3-5-1-16-11-12-8-26 5-12 2-7-10-14-21-12-3-25-5-2-6-6-31v-2l-5-2-23-15-4-4 7-33-1-6-14-20-5-8 2-5 13-19 5-7-1-10-5-23v-6l11-8 19-12 2-6 6-32 12-3 26-5 15-23 5-8 11 1 23 5h6l16-11zm-10 51-19 3-16 5-14 6-16 10-13 11-9 9-11 15-8 14-6 15-4 15-2 11v30l4 21 8 21 8 14 10 13 11 12 14 11 15 9 19 8 16 4 16 2h16l21-3 17-5 19-9 13-9 13-11 11-12 10-15 8-16 6-18 3-16 1-19-2-19-4-17-7-17-9-16-10-13-14-14-17-12-16-8-13-5-18-4-8-1z" fill="#CBF0FC" data-index="2"></path>
<path transform="translate(267,451)" d="m0 0 3 1 3 12 5 24 5 5 24 5 12 3 20 30 5 2 13-1-8 14-17 29-17 28-19 32-14 23-2 2-3-8-19-66v-4l-81 16-4-1 22-34 14-22 22-34 32-50z" fill="#CBF0FC" data-index="3"></path>
<path transform="translate(561,451)" d="m0 0 3 1 10 16 11 17 16 25 11 17 16 25 11 17 16 25 2 4-9-1-70-14h-5l-22 77-4-4-17-29-16-26-19-32-17-28-4-7v-2l12 1 6-3 10-15 9-14 13-3 23-5 5-5 5-23 3-13z" fill="#CBF0FC" data-index="4"></path>
<path transform="translate(1160,428)" d="m0 0h13l13 3 10 6 8 9 6 12v4h2l-1-9v-22l1-1h23l1 1v126l-1 1h-21l-1-1-2-27v-8l-1-1-2 9-7 13-9 9-11 6-8 2h-18l-14-4-12-7-10-10-7-11-5-13-2-10v-22l4-16 7-13 9-10 7-6 14-7z" fill="#CBF0FC" data-index="5" style="opacity: 1;"></path>
<path transform="translate(1013,428)" d="m0 0h25l16 4 12 7 8 8 8 14 4 16 1 11v10l-1 1h-103l4 15 7 11 7 6 10 5 10 2h11l12-3 10-6 7-10 1-3h24l-3 12-6 10-7 8-14 9-13 4-5 1h-22l-16-4-14-7-10-9-7-8-8-16-3-16v-12l3-16 5-12 8-11 8-8 14-8 12-4z" fill="#CBF0FC" data-index="6"></path>
<path transform="translate(773,393)" d="m0 0h24l1 1v71l105-1 1-70 1-1h24v165l-2 1-23-1v-71h-106v71l-3 1h-21l-1-1z" fill="#CBF0FC" data-index="7"></path>
<path transform="translate(1429,380)" d="m0 0h24l1 81 7-13 8-9 11-7 9-3 5-1h15l13 3 9 5 7 6 6 10 4 13v93h-24l-1-10v-72l-3-12-7-8-11-4h-16l-11 4-9 6-7 8-4 8-1 4-1 76h-24l-1-5v-166z" fill="#CBF0FC" data-index="8"></path>
<path transform="translate(404,227)" d="m0 0h23l18 3 16 5 16 7 11 7 13 10 14 14 11 16 8 15 5 13 4 17 2 19-1 19-4 20-7 19-9 16-9 12-11 12-12 10-16 10-18 8-14 4-21 3h-16l-21-3-16-5-16-7-16-10-15-13-9-10-11-16-8-16-6-18-3-17v-30l4-20 7-19 7-13 10-14 11-12 10-9 15-10 16-8 15-5 14-3zm0 11-18 3-18 6-17 9-13 10-8 7-9 11-8 11-9 19-5 16-2 12v28l4 20 6 16 9 16 10 13 12 12 14 10 17 9 15 5 14 3 9 1h16l20-3 18-6 16-8 11-8 10-9 9-9 9-13 9-17 5-15 3-16 1-17-2-19-5-19-7-16-10-15-11-13-10-9-15-10-17-8-17-5-14-2z" fill="#212020" data-index="9"></path>
<path transform="translate(481,294)" d="m0 0 4 2 15 14 6 5-2 5-15 15-7 8-7 7-7 8-9 9-7 8-9 9-7 8-32 34-4 4-4-2-10-9-8-7-10-9-8-7-10-9-11-9-15-14 6-8 12-13 3-4 4 2 11 9 7 7 8 7 10 9 11 9 3 1 2-4 11-11 7-8 7-7 7-8 10-10 7-8 7-7 7-8 9-9 7-8z" fill="#212020" data-index="10"></path>
<path transform="translate(1726,430)" d="m0 0h25l4 9 34 85v3h2l1-5 22-56 14-35 1-1h25l-1 5-17 40-20 47-23 54-13 31-2 2h-25l2-6 19-40 2-4-1-9-17-40-20-48-12-28z" fill="#CBF0FC" data-index="11"></path>
<path transform="translate(1691,380)" d="m0 0h27v22l-18 1-9 2-6 5-3 8v13h32l1 1v21h-34v105h-24l-1-1v-104h-23l-1-1v-20h24l1-20 4-13 7-9 9-6 9-3z" fill="#CBF0FC" data-index="12"></path>
<path transform="translate(1160,450)" d="m0 0h21l11 4 9 7 6 9 4 13v21l-3 11-4 8-6 7-10 6-12 3h-11l-11-3-10-6-8-9-5-11-2-12 1-16 4-11 6-9 9-8z" fill="#212020" data-index="13" style="opacity: 1;"></path>
<path transform="translate(1350,397)" d="m0 0h24l1 33 28 1v21h-29v106h-24v-106h-29v-21l28-1z" fill="#CBF0FC" data-index="14"></path>
<path transform="translate(1270,380)" d="m0 0h25v178h-24l-1-1z" fill="#CBF0FC" data-index="15"></path>
<path transform="translate(1582,431)" d="m0 0h24v127h-24z" fill="#CBF0FC" data-index="16"></path>
<path transform="translate(1016,449)" d="m0 0h19l11 4 8 6 6 10 2 11h-78l4-11 7-9 9-7z" fill="#212020" data-index="17"></path>
<path transform="translate(1579,378)" d="m0 0h30v27h-30z" fill="#CBF0FC" data-index="18"></path>
</svg>