<svg version="1.1" id="Layer_1" xmlns="http://www.w3.org/2000/svg" xmlns:xlink="http://www.w3.org/1999/xlink" x="0px" y="0px"
	 width="100%" viewBox="0 0 1384 548" enable-background="new 0 0 1384 548" xml:space="preserve">
<path fill="#202020" opacity="1.000000" stroke="none" 
	d="
M866.000000,549.000000 
	C577.370605,549.000000 289.241180,549.000000 1.055882,549.000000 
	C1.055882,366.394226 1.055882,183.788422 1.055882,1.091306 
	C462.212799,1.091306 923.425598,1.091306 1384.819214,1.091306 
	C1384.819214,183.666519 1384.819214,366.333252 1384.819214,549.000000 
	C1212.121704,549.000000 1039.310791,549.000000 866.000000,549.000000 
M262.499817,423.742737 
	C283.498260,423.742401 304.496704,423.765808 325.495117,423.732910 
	C338.261719,423.712891 344.498383,417.461334 344.518280,404.686859 
	C344.548157,385.521332 344.482880,366.355469 344.603424,347.190643 
	C344.614594,345.419006 345.127930,342.953186 346.341064,342.011414 
	C350.768463,338.574219 355.591461,335.646637 360.277863,332.518707 
	C366.927856,344.579712 374.593079,346.896729 386.781799,340.725281 
	C392.572754,337.793121 398.470825,335.056702 404.141296,331.909027 
	C406.960663,330.344025 409.187683,330.532745 411.930237,332.016449 
	C417.928589,335.261505 424.350311,337.773865 430.159668,341.307831 
	C442.020721,348.523224 456.323364,340.950012 455.979370,325.326477 
	C455.524628,304.671051 455.780579,283.997131 455.982178,263.333618 
	C456.007294,260.761322 456.993317,257.788239 458.505890,255.707260 
	C468.201202,242.368713 472.727356,227.719009 471.243225,211.172989 
	C467.566528,170.183823 426.705048,143.157486 387.911041,156.357788 
	C384.605499,157.482544 383.100006,156.977478 380.955231,154.372528 
	C350.569489,117.467453 311.566101,100.904724 263.988007,106.669594 
	C195.843185,114.926468 146.123611,178.231964 154.104370,246.206238 
	C158.880997,286.889954 178.913559,318.373199 213.307297,340.582764 
	C216.292358,342.510345 217.147430,344.462402 217.125458,347.765808 
	C216.996857,367.097168 217.055222,386.429840 217.065689,405.762054 
	C217.071899,417.232880 223.389359,423.606415 235.001495,423.723358 
	C243.833420,423.812317 252.666962,423.742126 262.499817,423.742737 
M640.402466,310.494812 
	C640.399597,291.694763 640.454773,272.894409 640.363953,254.094772 
	C640.330017,247.063324 637.999756,244.886978 630.990479,244.800262 
	C629.330627,244.779709 627.669189,245.006546 626.006592,245.055573 
	C623.135010,245.140274 622.013733,246.412323 622.101624,249.432724 
	C622.309937,256.589386 622.171265,263.756134 622.171997,270.918823 
	C622.172668,277.180664 622.172119,283.442474 622.172119,289.804260 
	C605.713440,289.804260 590.139587,289.804260 574.271240,289.804260 
	C574.170593,288.596039 574.027893,287.638153 574.020508,286.679230 
	C573.935120,275.521301 573.939209,264.362244 573.771606,253.205704 
	C573.682312,247.262177 571.458862,245.064972 565.604553,244.817719 
	C563.616699,244.733765 561.616699,244.979782 559.621155,245.030350 
	C556.726807,245.103699 555.730835,246.433319 555.741028,249.422791 
	C555.847656,280.558044 555.774536,311.693878 555.849548,342.829285 
	C555.864929,349.219513 558.802917,351.567657 565.926758,351.462921 
	C573.533752,351.351074 573.807739,351.064484 573.808350,343.182831 
	C573.809265,330.582184 573.808594,317.981567 573.808594,305.339783 
	C590.243958,305.339783 606.119263,305.339783 622.177551,305.339783 
	C622.177551,317.860016 622.122742,330.014954 622.199402,342.169037 
	C622.241211,348.797424 624.650818,351.214874 631.219055,351.413208 
	C633.035461,351.468048 634.861145,351.114349 636.686035,351.006805 
	C639.584900,350.835938 640.510132,349.423309 640.467529,346.475739 
	C640.298950,334.817993 640.400635,323.156403 640.402466,310.494812 
M1026.263062,347.731354 
	C1026.217407,330.254791 1026.438232,312.772125 1026.040771,295.303589 
	C1025.729858,281.642975 1017.789124,271.947906 1004.716125,268.471497 
	C995.460876,266.010254 986.248962,266.338593 977.293762,270.065063 
	C975.685974,270.734131 974.074463,271.394287 972.070740,272.221130 
	C972.070740,263.679749 971.793701,255.843323 972.146851,248.035385 
	C972.516418,239.863800 970.334961,236.193237 959.397705,237.207123 
	C955.671936,237.552490 954.168213,238.976898 954.194336,243.138855 
	C954.396667,275.451385 954.300720,307.765778 954.311401,340.079590 
	C954.314575,349.755676 957.560547,352.410614 967.259705,351.275208 
	C970.933167,350.845154 972.224182,349.555176 972.173706,345.650269 
	C971.941162,327.665527 972.021179,309.675751 972.145874,291.688873 
	C972.158142,289.920074 972.695068,287.330292 973.914062,286.527954 
	C981.984070,281.216370 990.732910,279.158264 999.912354,283.468231 
	C1008.236206,287.376495 1009.064880,295.025879 1008.839661,303.006195 
	C1008.820923,303.671783 1008.762207,304.337006 1008.763855,305.002289 
	C1008.795898,317.825409 1008.837646,330.648499 1008.868958,343.471619 
	C1008.877502,346.956818 1010.033142,350.123260 1013.642334,350.735535 
	C1017.929688,351.462860 1022.749023,353.288483 1026.263062,347.731354 
M756.919250,342.513184 
	C758.668579,344.037415 760.266541,345.794006 762.191711,347.048401 
	C775.313477,355.598236 804.129822,355.022247 816.618591,345.607727 
	C818.970459,343.834869 821.248657,340.249817 821.316101,337.446930 
	C821.680542,322.315704 821.670349,307.155487 821.126526,292.029144 
	C820.740112,281.280823 814.656799,273.959442 804.574036,270.501801 
	C790.806702,265.780579 776.998901,266.511597 763.650330,272.121765 
	C761.089050,273.198212 758.330017,276.086548 757.644104,278.666016 
	C757.025635,280.991760 758.811035,284.223907 760.239441,286.640656 
	C760.600708,287.251862 763.773560,286.612854 765.433899,285.974792 
	C773.469604,282.886688 781.676453,281.064636 790.324707,282.028687 
	C800.939941,283.212036 805.343445,289.059631 803.751709,300.181244 
	C801.579895,300.453430 799.306519,300.745667 797.031250,301.022217 
	C788.613098,302.045349 780.040222,302.376160 771.807007,304.222626 
	C753.178955,308.400269 746.167480,326.213318 756.919250,342.513184 
M1176.096802,364.571136 
	C1173.703979,367.119110 1171.487793,369.869568 1168.867065,372.156403 
	C1166.407349,374.302856 1166.662598,376.282928 1168.162476,378.685608 
	C1171.505005,384.040283 1178.834229,385.635773 1184.285034,380.976166 
	C1189.387207,376.614624 1193.997925,371.362701 1197.731812,365.772522 
	C1211.813477,344.689697 1220.882446,321.282806 1228.013062,297.104767 
	C1229.981201,290.431396 1231.370605,283.540894 1232.415161,276.657410 
	C1233.154175,271.788116 1230.322021,269.003815 1225.241943,268.343140 
	C1219.574829,267.606140 1216.473267,269.612701 1215.239990,274.402405 
	C1212.835571,283.739868 1210.551514,293.124420 1207.675903,302.320099 
	C1204.563477,312.272949 1200.833252,322.032593 1196.985474,332.977264 
	C1195.856812,330.710541 1195.273193,329.760315 1194.889893,328.735229 
	C1188.599365,311.918579 1182.341553,295.089844 1176.053711,278.272278 
	C1175.299316,276.254333 1174.654785,274.136261 1173.537231,272.325104 
	C1170.997437,268.209595 1165.276855,267.271454 1160.119263,269.430084 
	C1155.049072,271.552155 1156.610962,274.986725 1157.895752,278.451019 
	C1163.616577,293.876343 1169.119751,309.389404 1175.214233,324.666199 
	C1178.369629,332.575623 1181.568970,340.786987 1190.658569,345.181366 
	C1185.707031,351.810211 1181.139160,357.925507 1176.096802,364.571136 
M704.177734,267.602478 
	C679.961487,267.190521 665.219421,279.676178 662.555115,303.993591 
	C660.783508,320.162354 663.917358,335.457947 678.483337,345.125580 
	C693.892212,355.352631 710.765076,355.649200 727.623047,348.503418 
	C730.275146,347.379211 733.185242,344.642944 733.994446,342.036774 
	C734.754700,339.588165 733.229858,336.157318 731.930298,333.547150 
	C731.631348,332.946686 727.894348,333.424835 726.167053,334.275024 
	C717.306213,338.636475 708.130371,340.048035 698.490051,337.865051 
	C688.622986,335.630768 681.631104,328.305481 680.730225,319.297028 
	C681.500305,319.138947 682.283508,318.936798 683.079285,318.820984 
	C698.571228,316.566620 714.069031,314.351746 729.555786,312.062378 
	C736.415100,311.048370 738.331604,308.665924 738.194946,301.692108 
	C737.827637,282.952087 724.781311,269.558563 704.177734,267.602478 
M1131.264160,234.934402 
	C1128.266968,234.918640 1125.263428,234.768921 1122.273438,234.908890 
	C1103.479736,235.788971 1093.264404,246.380234 1093.208008,265.214722 
	C1093.131104,290.865356 1093.165283,316.516418 1093.208130,342.167236 
	C1093.219727,349.182587 1095.953491,351.931488 1102.885376,351.826050 
	C1105.474976,351.786682 1108.055176,351.132629 1111.157715,350.683899 
	C1111.157715,329.901215 1111.157715,309.525543 1111.157715,289.109955 
	C1112.575317,289.043152 1113.400146,288.971741 1114.225098,288.970428 
	C1122.220093,288.957642 1130.217285,289.063263 1138.209473,288.911682 
	C1142.892700,288.822876 1144.988281,286.303619 1144.806519,281.429962 
	C1144.657593,277.433838 1143.844238,274.560303 1138.504150,274.830048 
	C1129.405884,275.289673 1120.267578,274.956665 1110.795288,274.956665 
	C1110.795288,270.207550 1110.479370,265.916107 1110.865967,261.688934 
	C1111.520752,254.530624 1114.515137,250.606934 1121.549683,249.981583 
	C1128.023193,249.406113 1134.804443,250.011658 1141.173462,251.382263 
	C1145.092529,252.225632 1146.368286,251.091110 1147.395874,248.083588 
	C1148.772705,244.053833 1147.663574,240.471054 1143.967773,238.687088 
	C1140.303101,236.918152 1136.136230,236.189896 1131.264160,234.934402 
M889.532043,277.499573 
	C889.538635,294.474762 889.518494,311.449982 889.564331,328.425079 
	C889.583801,335.628296 890.689880,342.671722 897.057617,347.112915 
	C907.056458,354.086365 918.201233,354.852600 929.441345,350.913391 
	C936.464050,348.452240 937.524414,342.065826 933.431213,337.264099 
	C926.761658,337.536774 920.883118,338.211517 915.063538,337.872589 
	C910.697998,337.618347 907.396667,334.512085 907.307129,330.041290 
	C907.015442,315.463409 907.197876,300.876007 907.197876,285.921417 
	C914.548767,285.921417 921.508179,286.005676 928.464478,285.893188 
	C933.495911,285.811829 935.566895,283.427704 935.438721,278.292572 
	C935.300354,272.752380 934.297363,271.767090 928.711243,271.758331 
	C921.608276,271.747223 914.505249,271.755615 907.033264,271.755615 
	C907.033264,266.501465 907.040405,261.872650 907.031738,257.243866 
	C907.014099,247.832565 903.166992,244.826950 893.863464,246.427994 
	C890.318359,247.038086 889.330811,248.543854 889.446838,252.038177 
	C889.717346,260.183929 889.532593,268.344788 889.532043,277.499573 
M863.841187,257.504333 
	C863.841614,254.341141 863.849182,251.177917 863.841064,248.014740 
	C863.817017,238.648880 860.008484,235.662247 850.620056,237.259583 
	C847.217590,237.838470 846.079163,239.179535 846.097229,242.794708 
	C846.260193,275.419739 846.180847,308.045898 846.198914,340.671722 
	C846.203796,349.427612 849.059204,351.897095 857.736206,351.372406 
	C862.068420,351.110382 864.023010,349.924896 863.974609,344.891876 
	C863.697998,316.097778 863.840149,287.299622 863.841187,257.504333 
M1068.722900,349.784943 
	C1068.771484,326.975586 1068.830444,304.166260 1068.864014,281.356903 
	C1068.878784,271.272522 1066.402344,269.147522 1056.291870,269.824799 
	C1052.433350,270.083221 1050.917725,271.292480 1050.960205,275.507172 
	C1051.180908,297.478943 1051.047974,319.454102 1051.067139,341.428101 
	C1051.074219,349.698456 1054.169312,352.551239 1062.403198,351.790833 
	C1064.366455,351.609558 1066.285400,350.947876 1068.722900,349.784943 
M1068.312012,239.257935 
	C1063.757202,235.080505 1058.779175,234.247253 1054.267334,236.906937 
	C1050.330933,239.227356 1048.385010,243.692566 1049.476074,248.017334 
	C1050.506836,252.103363 1053.144409,254.785797 1057.170166,255.742493 
	C1061.309814,256.726288 1065.221191,255.947266 1068.018677,252.439331 
	C1071.170288,248.487595 1071.147461,244.196899 1068.312012,239.257935 
z"/>
<path fill="#8FDEEC" opacity="1.000000" stroke="none" 
	d="
M261.999817,423.742737 
	C252.666962,423.742126 243.833420,423.812317 235.001495,423.723358 
	C223.389359,423.606415 217.071899,417.232880 217.065689,405.762054 
	C217.055222,386.429840 216.996857,367.097168 217.125458,347.765808 
	C217.147430,344.462402 216.292358,342.510345 213.307297,340.582764 
	C178.913559,318.373199 158.880997,286.889954 154.104370,246.206238 
	C146.123611,178.231964 195.843185,114.926468 263.988007,106.669594 
	C311.566101,100.904724 350.569489,117.467453 380.955231,154.372528 
	C383.100006,156.977478 384.605499,157.482544 387.911041,156.357788 
	C426.705048,143.157486 467.566528,170.183823 471.243225,211.172989 
	C472.727356,227.719009 468.201202,242.368713 458.505890,255.707260 
	C456.993317,257.788239 456.007294,260.761322 455.982178,263.333618 
	C455.780579,283.997131 455.524628,304.671051 455.979370,325.326477 
	C456.323364,340.950012 442.020721,348.523224 430.159668,341.307831 
	C424.350311,337.773865 417.928589,335.261505 411.930237,332.016449 
	C409.187683,330.532745 406.960663,330.344025 404.141296,331.909027 
	C398.470825,335.056702 392.572754,337.793121 386.781799,340.725281 
	C374.593079,346.896729 366.927856,344.579712 360.277863,332.518707 
	C355.591461,335.646637 350.768463,338.574219 346.341064,342.011414 
	C345.127930,342.953186 344.614594,345.419006 344.603424,347.190643 
	C344.482880,366.355469 344.548157,385.521332 344.518280,404.686859 
	C344.498383,417.461334 338.261719,423.712891 325.495117,423.732910 
	C304.496704,423.765808 283.498260,423.742401 261.999817,423.742737 
M341.800903,159.675919 
	C324.915558,145.736298 305.610077,138.485962 283.649506,137.619247 
	C222.085464,135.189453 173.768784,193.238892 187.716583,253.274109 
	C194.488571,282.422607 211.362473,303.953918 237.852463,317.696167 
	C245.805161,321.821777 249.554779,327.626190 249.091476,336.420685 
	C248.964294,338.835052 249.072144,341.261780 249.072144,343.929047 
	C260.120667,343.929047 270.437439,343.929047 280.754181,343.929047 
	C291.211578,343.929047 301.668976,343.929047 312.529663,343.929047 
	C312.529663,341.589722 312.705139,339.760345 312.500732,337.974396 
	C311.310394,327.572723 315.990051,321.144226 325.289795,316.710510 
	C336.854767,311.196777 346.244293,302.702271 354.580078,292.958984 
	C358.456696,288.427765 360.711365,283.790283 360.106079,277.652069 
	C359.634064,272.865540 360.308990,267.969421 359.892792,263.172455 
	C359.667053,260.570862 358.761810,257.686493 357.246002,255.594040 
	C347.571655,242.239029 343.129456,227.560577 344.536743,211.024399 
	C345.614960,198.355179 350.472351,187.292099 358.406067,176.472702 
	C353.024567,170.983963 347.693451,165.546616 341.800903,159.675919 
M387.004669,240.531738 
	C388.057434,241.345825 389.071167,242.217239 390.169006,242.965134 
	C401.409393,250.622543 416.256439,250.228973 427.030273,242.010361 
	C438.028198,233.620789 442.364868,219.200760 437.795563,206.214035 
	C433.289368,193.406601 420.527161,184.386841 406.958374,185.152313 
	C393.473663,185.913055 383.426941,192.582001 378.559814,205.286514 
	C373.564941,218.324371 376.463379,230.138962 387.004669,240.531738 
z"/>
<path fill="#8EDCEA" opacity="1.000000" stroke="none" 
	d="
M640.402344,310.995514 
	C640.400635,323.156403 640.298950,334.817993 640.467529,346.475739 
	C640.510132,349.423309 639.584900,350.835938 636.686035,351.006805 
	C634.861145,351.114349 633.035461,351.468048 631.219055,351.413208 
	C624.650818,351.214874 622.241211,348.797424 622.199402,342.169037 
	C622.122742,330.014954 622.177551,317.860016 622.177551,305.339783 
	C606.119263,305.339783 590.243958,305.339783 573.808594,305.339783 
	C573.808594,317.981567 573.809265,330.582184 573.808350,343.182831 
	C573.807739,351.064484 573.533752,351.351074 565.926758,351.462921 
	C558.802917,351.567657 555.864929,349.219513 555.849548,342.829285 
	C555.774536,311.693878 555.847656,280.558044 555.741028,249.422791 
	C555.730835,246.433319 556.726807,245.103699 559.621155,245.030350 
	C561.616699,244.979782 563.616699,244.733765 565.604553,244.817719 
	C571.458862,245.064972 573.682312,247.262177 573.771606,253.205704 
	C573.939209,264.362244 573.935120,275.521301 574.020508,286.679230 
	C574.027893,287.638153 574.170593,288.596039 574.271240,289.804260 
	C590.139587,289.804260 605.713440,289.804260 622.172119,289.804260 
	C622.172119,283.442474 622.172668,277.180664 622.171997,270.918823 
	C622.171265,263.756134 622.309937,256.589386 622.101624,249.432724 
	C622.013733,246.412323 623.135010,245.140274 626.006592,245.055573 
	C627.669189,245.006546 629.330627,244.779709 630.990479,244.800262 
	C637.999756,244.886978 640.330017,247.063324 640.363953,254.094772 
	C640.454773,272.894409 640.399597,291.694763 640.402344,310.995514 
z"/>
<path fill="#8EDCEA" opacity="1.000000" stroke="none" 
	d="
M1026.252686,348.155640 
	C1022.749023,353.288483 1017.929688,351.462860 1013.642334,350.735535 
	C1010.033142,350.123260 1008.877502,346.956818 1008.868958,343.471619 
	C1008.837646,330.648499 1008.795898,317.825409 1008.763855,305.002289 
	C1008.762207,304.337006 1008.820923,303.671783 1008.839661,303.006195 
	C1009.064880,295.025879 1008.236206,287.376495 999.912354,283.468231 
	C990.732910,279.158264 981.984070,281.216370 973.914062,286.527954 
	C972.695068,287.330292 972.158142,289.920074 972.145874,291.688873 
	C972.021179,309.675751 971.941162,327.665527 972.173706,345.650269 
	C972.224182,349.555176 970.933167,350.845154 967.259705,351.275208 
	C957.560547,352.410614 954.314575,349.755676 954.311401,340.079590 
	C954.300720,307.765778 954.396667,275.451385 954.194336,243.138855 
	C954.168213,238.976898 955.671936,237.552490 959.397705,237.207123 
	C970.334961,236.193237 972.516418,239.863800 972.146851,248.035385 
	C971.793701,255.843323 972.070740,263.679749 972.070740,272.221130 
	C974.074463,271.394287 975.685974,270.734131 977.293762,270.065063 
	C986.248962,266.338593 995.460876,266.010254 1004.716125,268.471497 
	C1017.789124,271.947906 1025.729858,281.642975 1026.040771,295.303589 
	C1026.438232,312.772125 1026.217407,330.254791 1026.252686,348.155640 
z"/>
<path fill="#8DDBE9" opacity="1.000000" stroke="none" 
	d="
M756.691223,342.233826 
	C746.167480,326.213318 753.178955,308.400269 771.807007,304.222626 
	C780.040222,302.376160 788.613098,302.045349 797.031250,301.022217 
	C799.306519,300.745667 801.579895,300.453430 803.751709,300.181244 
	C805.343445,289.059631 800.939941,283.212036 790.324707,282.028687 
	C781.676453,281.064636 773.469604,282.886688 765.433899,285.974792 
	C763.773560,286.612854 760.600708,287.251862 760.239441,286.640656 
	C758.811035,284.223907 757.025635,280.991760 757.644104,278.666016 
	C758.330017,276.086548 761.089050,273.198212 763.650330,272.121765 
	C776.998901,266.511597 790.806702,265.780579 804.574036,270.501801 
	C814.656799,273.959442 820.740112,281.280823 821.126526,292.029144 
	C821.670349,307.155487 821.680542,322.315704 821.316101,337.446930 
	C821.248657,340.249817 818.970459,343.834869 816.618591,345.607727 
	C804.129822,355.022247 775.313477,355.598236 762.191711,347.048401 
	C760.266541,345.794006 758.668579,344.037415 756.691223,342.233826 
M773.759827,335.874512 
	C783.137512,341.000671 792.646545,339.822418 802.160889,336.373627 
	C802.962524,336.083008 804.089355,335.129303 804.102783,334.464294 
	C804.244385,327.438507 804.190369,320.408752 804.190369,313.049255 
	C795.235291,314.155182 787.056763,314.647064 779.111206,316.275299 
	C768.787476,318.390869 766.169922,327.549103 773.759827,335.874512 
z"/>
<path fill="#8EDCEA" opacity="1.000000" stroke="none" 
	d="
M1176.333984,364.305969 
	C1181.139160,357.925507 1185.707031,351.810211 1190.658569,345.181366 
	C1181.568970,340.786987 1178.369629,332.575623 1175.214233,324.666199 
	C1169.119751,309.389404 1163.616577,293.876343 1157.895752,278.451019 
	C1156.610962,274.986725 1155.049072,271.552155 1160.119263,269.430084 
	C1165.276855,267.271454 1170.997437,268.209595 1173.537231,272.325104 
	C1174.654785,274.136261 1175.299316,276.254333 1176.053711,278.272278 
	C1182.341553,295.089844 1188.599365,311.918579 1194.889893,328.735229 
	C1195.273193,329.760315 1195.856812,330.710541 1196.985474,332.977264 
	C1200.833252,322.032593 1204.563477,312.272949 1207.675903,302.320099 
	C1210.551514,293.124420 1212.835571,283.739868 1215.239990,274.402405 
	C1216.473267,269.612701 1219.574829,267.606140 1225.241943,268.343140 
	C1230.322021,269.003815 1233.154175,271.788116 1232.415161,276.657410 
	C1231.370605,283.540894 1229.981201,290.431396 1228.013062,297.104767 
	C1220.882446,321.282806 1211.813477,344.689697 1197.731812,365.772522 
	C1193.997925,371.362701 1189.387207,376.614624 1184.285034,380.976166 
	C1178.834229,385.635773 1171.505005,384.040283 1168.162476,378.685608 
	C1166.662598,376.282928 1166.407349,374.302856 1168.867065,372.156403 
	C1171.487793,369.869568 1173.703979,367.119110 1176.333984,364.305969 
z"/>
<path fill="#8EDCEA" opacity="1.000000" stroke="none" 
	d="
M704.614685,267.634552 
	C724.781311,269.558563 737.827637,282.952087 738.194946,301.692108 
	C738.331604,308.665924 736.415100,311.048370 729.555786,312.062378 
	C714.069031,314.351746 698.571228,316.566620 683.079285,318.820984 
	C682.283508,318.936798 681.500305,319.138947 680.730225,319.297028 
	C681.631104,328.305481 688.622986,335.630768 698.490051,337.865051 
	C708.130371,340.048035 717.306213,338.636475 726.167053,334.275024 
	C727.894348,333.424835 731.631348,332.946686 731.930298,333.547150 
	C733.229858,336.157318 734.754700,339.588165 733.994446,342.036774 
	C733.185242,344.642944 730.275146,347.379211 727.623047,348.503418 
	C710.765076,355.649200 693.892212,355.352631 678.483337,345.125580 
	C663.917358,335.457947 660.783508,320.162354 662.555115,303.993591 
	C665.219421,279.676178 679.961487,267.190521 704.614685,267.634552 
M697.365173,281.658051 
	C685.532532,284.441132 677.711609,295.166229 679.736938,306.212921 
	C693.622986,304.216431 707.517212,302.218719 721.370178,300.226990 
	C720.099854,286.809692 711.754150,280.313080 697.365173,281.658051 
z"/>
<path fill="#8DDCE9" opacity="1.000000" stroke="none" 
	d="
M1131.726807,234.969803 
	C1136.136230,236.189896 1140.303101,236.918152 1143.967773,238.687088 
	C1147.663574,240.471054 1148.772705,244.053833 1147.395874,248.083588 
	C1146.368286,251.091110 1145.092529,252.225632 1141.173462,251.382263 
	C1134.804443,250.011658 1128.023193,249.406113 1121.549683,249.981583 
	C1114.515137,250.606934 1111.520752,254.530624 1110.865967,261.688934 
	C1110.479370,265.916107 1110.795288,270.207550 1110.795288,274.956665 
	C1120.267578,274.956665 1129.405884,275.289673 1138.504150,274.830048 
	C1143.844238,274.560303 1144.657593,277.433838 1144.806519,281.429962 
	C1144.988281,286.303619 1142.892700,288.822876 1138.209473,288.911682 
	C1130.217285,289.063263 1122.220093,288.957642 1114.225098,288.970428 
	C1113.400146,288.971741 1112.575317,289.043152 1111.157715,289.109955 
	C1111.157715,309.525543 1111.157715,329.901215 1111.157715,350.683899 
	C1108.055176,351.132629 1105.474976,351.786682 1102.885376,351.826050 
	C1095.953491,351.931488 1093.219727,349.182587 1093.208130,342.167236 
	C1093.165283,316.516418 1093.131104,290.865356 1093.208008,265.214722 
	C1093.264404,246.380234 1103.479736,235.788971 1122.273438,234.908890 
	C1125.263428,234.768921 1128.266968,234.918640 1131.726807,234.969803 
z"/>
<path fill="#8FDDEC" opacity="1.000000" stroke="none" 
	d="
M889.532166,276.999573 
	C889.532593,268.344788 889.717346,260.183929 889.446838,252.038177 
	C889.330811,248.543854 890.318359,247.038086 893.863464,246.427994 
	C903.166992,244.826950 907.014099,247.832565 907.031738,257.243866 
	C907.040405,261.872650 907.033264,266.501465 907.033264,271.755615 
	C914.505249,271.755615 921.608276,271.747223 928.711243,271.758331 
	C934.297363,271.767090 935.300354,272.752380 935.438721,278.292572 
	C935.566895,283.427704 933.495911,285.811829 928.464478,285.893188 
	C921.508179,286.005676 914.548767,285.921417 907.197876,285.921417 
	C907.197876,300.876007 907.015442,315.463409 907.307129,330.041290 
	C907.396667,334.512085 910.697998,337.618347 915.063538,337.872589 
	C920.883118,338.211517 926.761658,337.536774 933.431213,337.264099 
	C937.524414,342.065826 936.464050,348.452240 929.441345,350.913391 
	C918.201233,354.852600 907.056458,354.086365 897.057617,347.112915 
	C890.689880,342.671722 889.583801,335.628296 889.564331,328.425079 
	C889.518494,311.449982 889.538635,294.474762 889.532166,276.999573 
z"/>
<path fill="#8CDAE7" opacity="1.000000" stroke="none" 
	d="
M863.840576,258.003601 
	C863.840149,287.299622 863.697998,316.097778 863.974609,344.891876 
	C864.023010,349.924896 862.068420,351.110382 857.736206,351.372406 
	C849.059204,351.897095 846.203796,349.427612 846.198914,340.671722 
	C846.180847,308.045898 846.260193,275.419739 846.097229,242.794708 
	C846.079163,239.179535 847.217590,237.838470 850.620056,237.259583 
	C860.008484,235.662247 863.817017,238.648880 863.841064,248.014740 
	C863.849182,251.177917 863.841614,254.341141 863.840576,258.003601 
z"/>
<path fill="#8DDBE9" opacity="1.000000" stroke="none" 
	d="
M1068.473877,350.146057 
	C1066.285400,350.947876 1064.366455,351.609558 1062.403198,351.790833 
	C1054.169312,352.551239 1051.074219,349.698456 1051.067139,341.428101 
	C1051.047974,319.454102 1051.180908,297.478943 1050.960205,275.507172 
	C1050.917725,271.292480 1052.433350,270.083221 1056.291870,269.824799 
	C1066.402344,269.147522 1068.878784,271.272522 1068.864014,281.356903 
	C1068.830444,304.166260 1068.771484,326.975586 1068.473877,350.146057 
z"/>
<path fill="#8DD9E8" opacity="1.000000" stroke="none" 
	d="
M1068.545166,239.547668 
	C1071.147461,244.196899 1071.170288,248.487595 1068.018677,252.439331 
	C1065.221191,255.947266 1061.309814,256.726288 1057.170166,255.742493 
	C1053.144409,254.785797 1050.506836,252.103363 1049.476074,248.017334 
	C1048.385010,243.692566 1050.330933,239.227356 1054.267334,236.906937 
	C1058.779175,234.247253 1063.757202,235.080505 1068.545166,239.547668 
z"/>
<path fill="#202121" opacity="1.000000" stroke="none" 
	d="
M342.081604,159.892609 
	C347.693451,165.546616 353.024567,170.983963 358.406067,176.472702 
	C350.472351,187.292099 345.614960,198.355179 344.536743,211.024399 
	C343.129456,227.560577 347.571655,242.239029 357.246002,255.594040 
	C358.761810,257.686493 359.667053,260.570862 359.892792,263.172455 
	C360.308990,267.969421 359.634064,272.865540 360.106079,277.652069 
	C360.711365,283.790283 358.456696,288.427765 354.580078,292.958984 
	C346.244293,302.702271 336.854767,311.196777 325.289795,316.710510 
	C315.990051,321.144226 311.310394,327.572723 312.500732,337.974396 
	C312.705139,339.760345 312.529663,341.589722 312.529663,343.929047 
	C301.668976,343.929047 291.211578,343.929047 280.754181,343.929047 
	C270.437439,343.929047 260.120667,343.929047 249.072144,343.929047 
	C249.072144,341.261780 248.964294,338.835052 249.091476,336.420685 
	C249.554779,327.626190 245.805161,321.821777 237.852463,317.696167 
	C211.362473,303.953918 194.488571,282.422607 187.716583,253.274109 
	C173.768784,193.238892 222.085464,135.189453 283.649506,137.619247 
	C305.610077,138.485962 324.915558,145.736298 342.081604,159.892609 
z"/>
<path fill="#212222" opacity="1.000000" stroke="none" 
	d="
M386.736755,240.292191 
	C376.463379,230.138962 373.564941,218.324371 378.559814,205.286514 
	C383.426941,192.582001 393.473663,185.913055 406.958374,185.152313 
	C420.527161,184.386841 433.289368,193.406601 437.795563,206.214035 
	C442.364868,219.200760 438.028198,233.620789 427.030273,242.010361 
	C416.256439,250.228973 401.409393,250.622543 390.169006,242.965134 
	C389.071167,242.217239 388.057434,241.345825 386.736755,240.292191 
z"/>
<path fill="#222323" opacity="1.000000" stroke="none" 
	d="
M773.461426,335.639771 
	C766.169922,327.549103 768.787476,318.390869 779.111206,316.275299 
	C787.056763,314.647064 795.235291,314.155182 804.190369,313.049255 
	C804.190369,320.408752 804.244385,327.438507 804.102783,334.464294 
	C804.089355,335.129303 802.962524,336.083008 802.160889,336.373627 
	C792.646545,339.822418 783.137512,341.000671 773.461426,335.639771 
z"/>
<path fill="#232525" opacity="1.000000" stroke="none" 
	d="
M697.770752,281.571228 
	C711.754150,280.313080 720.099854,286.809692 721.370178,300.226990 
	C707.517212,302.218719 693.622986,304.216431 679.736938,306.212921 
	C677.711609,295.166229 685.532532,284.441132 697.770752,281.571228 
z"/>
</svg>